<svg xmlns="http://www.w3.org/2000/svg" width="20.13" height="19.193">
<path d="m3.658 9.556-3.66-1.313 1.135-2.919 3.522 1.175a19.78 19.78 0 0 1 2.473 1 14.642 14.642 0 0 1 1.847 1.11q-.225-1.077-.366-2.181a20.7 20.7 0 0 1-.141-2.582V-.001h3.137v3.852a24.082 24.082 0 0 1-.125 2.61 20.343 20.343 0 0 1-.35 2.153 19.2 19.2 0 0 1 1.846-1.1 18.615 18.615 0 0 1 2.435-1.015l3.545-1.207 1.173 2.951-3.713 1.313a18.8 18.8 0 0 1-2.51.714q-1.145.232-2.1.376a16.16 16.16 0 0 1 1.567 1.515 17.7 17.7 0 0 1 1.534 2.038l2.151 3.2-2.57 1.79-2.207-3.1a19.683 19.683 0 0 1-1.4-2.265q-.526-1.021-.895-1.928a12.849 12.849 0 0 1-.832 2.013 17.2 17.2 0 0 1-1.359 2.18l-2.282 3.1-2.6-1.79 2.2-3.2a19.266 19.266 0 0 1 1.615-2.035q.735-.786 1.541-1.518-1.22-.176-2.3-.424a23.622 23.622 0 0 1-2.311-.666Z"/></svg>
